<?xml version="1.0" encoding="UTF-8"?>
<svg id="_Слой_1" data-name="Слой 1" xmlns="http://www.w3.org/2000/svg" viewBox="0 0 501.73 501.73">
  <defs>
    <style>
      .cls-1 {
        fill: #c32865;
        fill-rule: evenodd;
        stroke: #c32865;
        stroke-miterlimit: 10;
        stroke-width: 10px;
      }
    </style>
  </defs>
  <path class="cls-1" d="M221.12,11.71C119.97,24.94,38.48,99.5,16.68,198.75c-4.91,22.38-6.66,55.7-4.1,78.18,2.72,23.87,13.68,64.25,17.43,64.25,1.16,0,13.67-4.79,14.45-5.53,.19-.18-1.26-4.88-3.24-10.43-6.69-18.8-12.59-47.76-12.61-61.79v-5.25s11.5,0,11.5,0h11.5v-16H28.32l.64-9.77c2.3-35.03,15.26-72.99,35.43-103.73,7.5-11.43,21.6-29.5,23.01-29.5,.36,0,3.72,3.03,7.45,6.73l6.78,6.73,6.22-6.22,6.22-6.22-6.73-6.78c-3.7-3.73-6.73-7.08-6.73-7.45,0-1.4,18.02-15.48,29.22-22.83,21.02-13.79,42.74-23.29,67.6-29.58,13.72-3.47,32.52-6.38,41.23-6.38h4.95v23h16V27.18h4.95c8.15,0,26.77,2.78,39.55,5.91,25.23,6.18,47.79,15.94,69,29.86,11.43,7.5,29.5,21.6,29.5,23.01,0,.36-3.03,3.72-6.73,7.45l-6.73,6.78,6.22,6.22,6.22,6.22,6.78-6.73c3.73-3.7,7.08-6.73,7.45-6.73,1.4,0,15.48,18.02,22.83,29.22,20.34,31.01,33.32,68.91,35.62,104.01l.64,9.77h-23.3v16h23.3l-.64,9.77c-2.3,35.1-15.28,73-35.62,104.01-7.34,11.2-21.42,29.22-22.83,29.22-.36,0-3.72-3.03-7.45-6.73l-6.78-6.73-6.22,6.22-6.22,6.22,6.73,6.78c3.7,3.73,6.73,7.08,6.73,7.45,0,1.4-18.02,15.48-29.22,22.83-31.14,20.43-68.63,33.26-104.03,35.61l-9.75,.65v-23.3h-16v23h-5.25c-8.1-.01-30.5-3.58-43.05-6.86-46.3-12.11-88.69-39.82-119.13-77.89-3.19-3.99-6-7.25-6.25-7.25-.77,0-13.32,9.14-13.32,9.69,0,1.77,15.28,19.68,25.45,29.82,37.48,37.39,85.8,61.04,138.85,67.95,15.48,2.02,45.96,2.01,61.36,0,91.88-12.04,168.5-74.97,197.22-161.96,8.91-27.01,12.12-47.25,12.12-76.5s-3.21-49.49-12.12-76.5c-16.13-48.85-48.4-91.75-91.74-121.94-9.78-6.81-29.08-17.35-40.99-22.38-21.64-9.14-42.18-14.71-64.99-17.61-14.94-1.9-46.25-1.92-60.66-.04Zm23.5,122.44c-118.17,9.95-127.82,10.9-131.88,12.97-5.35,2.73-8.8,6.29-11.24,11.56-1.7,3.69-1.84,7.39-1.86,47.75l-.02,43.75h15.92l.29-42.09,.29-42.09,2.61-2.24c2.25-1.93,4.53-2.41,16.55-3.41,7.67-.64,15.38-1.17,17.14-1.17h3.2v100.29l5.75-.56c3.16-.31,21.27-1.81,40.25-3.34l34.5-2.78-.27-50.24-.27-50.24,4.27-.56c4.21-.55,64.13-5.57,66.53-5.57,.97,0,1.24,14.65,1.24,68v68h16V144.64l29.08-2.38,29.08-2.38,2.67,2.67,2.67,2.67,.27,96.01c.15,52.81-.1,97.43-.54,99.15-1.5,5.79-3.66,6.46-26.73,8.24-11.55,.89-22.69,1.87-24.75,2.17l-3.75,.55v-3.93c0-6.27-3.53-18.36-7.85-26.88-7.1-14.01-2.99-15.92-35.6,16.62l-28.54,28.49-9.01-8.97-9.01-8.97-6.24,6.24-6.24,6.24,15.24,15.24,15.24,15.24,26.41-26.4,26.41-26.4,1.08,3.9c.6,2.15,1.09,7.82,1.09,12.6,.01,17.04-7.93,33.29-21.17,43.31-11.02,8.34-20.32,11.46-34.15,11.48-30.33,.04-54.68-24.44-54.68-54.99,0-40.26,40.72-66.57,77.9-50.33,2.97,1.3,5.48,2.24,5.58,2.1,2.34-3.43,7.51-12.82,7.51-13.63,0-1.67-8.95-5.85-17.62-8.23-6.64-1.82-9.65-2.06-21.31-1.67-11.69,.39-14.61,.84-20.99,3.21-11.5,4.28-20.51,10.2-28.55,18.72-12.99,13.77-19.54,30.15-19.54,48.85v9.7l-6.25,.6c-3.44,.33-18.32,1.59-33.06,2.8l-26.81,2.2-2.69-2.69c-2.58-2.58-2.7-3.17-3.04-15.16l-.35-12.48h-15.79v14.68c0,12.8,.26,15.23,2.07,18.96,2.61,5.39,7.37,9.6,13.51,11.94,4.69,1.79,5.4,1.78,38.36-.9,18.46-1.5,34.56-2.72,35.77-2.7,1.74,.02,3.1,1.77,6.46,8.28,8.73,16.89,26.61,30.96,45.46,35.78,10.45,2.67,26.31,2.67,36.75,0,23.96-6.13,44.42-25.94,51.15-49.53,.94-3.3,1.83-6.14,1.98-6.31,.15-.17,12.58-1.34,27.63-2.6,23.54-1.97,27.97-2.6,31.73-4.53,5.35-2.73,8.81-6.29,11.24-11.57,1.75-3.8,1.84-9.05,1.86-106.28,.02-83.59-.22-102.87-1.33-105.5-3.85-9.19-12.89-14.77-23.65-14.59-3.58,.06-63.88,4.94-134,10.84Zm-25,61.03c0,36.02-.21,42-1.45,42-2.12,0-36.24,2.87-41.8,3.52l-4.75,.55v-84.07l2.25-.06c1.68-.04,33.79-2.8,44.5-3.82,.98-.09,1.25,8.88,1.25,41.88Zm-116,74.89c-11.82,2.02-21.48,4.11-21.46,4.64,.14,3.74,1.77,13.34,2.45,14.45,.69,1.11,4.99,.67,24.17-2.46,12.84-2.1,23.64-4.08,24.01-4.42,.59-.53-.22-7.06-1.72-13.85-.64-2.9-.94-2.89-27.46,1.64Zm-18,39c-15.12,2.57-27.48,5.11-27.46,5.64,.14,3.76,1.77,13.35,2.46,14.46,.69,1.12,5.73,.55,28.53-3.25,15.23-2.54,27.86-4.79,28.08-5.01,.22-.22-.07-3.06-.63-6.31-1.55-8.94-1.94-10.43-2.74-10.31-.4,.06-13.11,2.21-28.23,4.78Zm-41.5,46.04l-34,6.71,.21,2.81c.43,5.85,2.48,13.55,3.62,13.56,2.53,.01,70.22-13.31,70.96-13.96,.67-.6,.22-3.98-1.84-13.79-.33-1.57-1.15-2.22-2.7-2.14-1.23,.06-17.53,3.13-36.23,6.82Z"/>
</svg>