<?xml version="1.0" encoding="UTF-8"?>
<svg id="_Слой_1" data-name="Слой 1" xmlns="http://www.w3.org/2000/svg" viewBox="0 0 501.73 501.73">
  <defs>
    <style>
      .cls-1 {
        fill: #c32865;
        fill-rule: evenodd;
      }
    </style>
  </defs>
  <path class="cls-1" d="M190.1,9.71c-3.92,1.04-10.75,3.69-15.19,5.9-6.56,3.26-9.76,5.71-17.12,13.07-7.36,7.36-9.8,10.56-13.06,17.12-5.67,11.4-7.8,20.66-7.72,33.61,.04,6.58,.66,12.84,1.66,16.7l1.6,6.17-23.25,14c-12.79,7.7-23.6,14-24.02,14-.42,0-2.34-1.08-4.27-2.39-8.8-6.01-25.79-8.01-36.58-4.3-18.03,6.2-29.1,21.75-29.1,40.86,0,24.54,18.17,42.71,42.71,42.71s42.71-18.17,42.71-42.73v-8.26l23.29-13.96c12.81-7.68,23.65-13.83,24.1-13.66,.45,.17,2.78,2.13,5.19,4.36l4.37,4.05v36.15c0,34.07-.1,36.11-1.66,35.43-.91-.39-5.78-.92-10.82-1.16-7.05-.34-10.34-.06-14.24,1.21-13.55,4.4-23.82,14.41-28.38,27.66-1.75,5.07-1.85,8.34-1.85,59.37,0,60,.1,61.21,6.3,74.72,4.27,9.32,8.77,15.14,23.14,29.96,13.08,13.49,16.77,18.34,20.96,27.59,4.55,10.04,5.6,16.32,6.14,36.95,.56,21.05,1.21,23.74,6.61,27.07,2.98,1.84,5.11,1.88,107.69,1.88s104.72-.04,107.69-1.88c5.63-3.48,6.06-5.58,6.61-31.82,.65-31.18,1.84-37.19,11.51-58.37,6.24-13.67,11.2-27.86,13.89-39.71,2.02-8.9,2.09-11.21,2.42-78.81,.33-67.27,.28-69.83-1.53-75.18-4.51-13.36-14.81-23.48-28.39-27.88-3.87-1.26-7.12-1.52-14.24-1.16-5.07,.26-10.39,.77-11.83,1.15-1.97,.52-2.61,.34-2.61-.71,0-.77-1.11-3.49-2.46-6.04-8.08-15.24-21.37-23.16-38.88-23.16-8.94,0-17.91,2.66-23.6,7-1.8,1.37-3.73,2.5-4.29,2.5s-2.76-1.26-4.87-2.79c-6.8-4.92-14.86-6.98-25.4-6.47-5.04,.24-9.91,.76-10.83,1.16-1.5,.65-1.66,0-1.66-6.9v-7.62l6.24-6c6.84-6.57,13.24-15.6,16.54-23.35,1.52-3.56,2.65-4.98,3.96-4.98,2.18,0,115.93,14.2,116.16,14.51,.09,.11,.9,2.49,1.81,5.27,3.66,11.19,15.09,22.16,26.89,25.8,23.02,7.11,46.6-4.74,54.37-27.32,2.48-7.22,2.47-19.86-.03-27.13-4.56-13.27-14.83-23.27-28.42-27.68-3.97-1.29-7.25-1.56-14.71-1.23-8.27,.37-10.46,.84-15.77,3.38-7.56,3.62-12.89,8.08-17.16,14.37-1.79,2.63-3.81,4.8-4.49,4.81-.68,.01-26.82-3.18-58.08-7.09-31.26-3.92-57.19-7.12-57.61-7.12-.42,0-1.46-3.53-2.32-7.83-2.09-10.54-4.79-17.31-10.21-25.58-8.73-13.32-22.61-24-37.59-28.92-10.57-3.47-29.73-4.07-40.34-1.27Zm33.46,30.28c10.36,4.08,19.54,13.28,23.63,23.7,2.28,5.8,3.52,20.67,2.04,24.59-.74,1.96-1.15,1.62-5.05-4.27-17.14-25.85-54.95-25.84-72.1,0-5,7.54-5.54,7.1-5.64-4.61-.1-11.14,3.1-19.91,10.19-27.96,4.94-5.61,10.1-9.12,17.47-11.92,7.94-3.01,21.16-2.8,29.45,.47Zm-8.12,56.07c6.77,4.13,6.4-.42,6.93,84.04,.52,83.67,.09,78.1,6.35,82.23,3.61,2.38,12.15,2.38,15.77,0,5.95-3.93,5.84-3.19,6.35-39.52,.46-32.06,.55-33.34,2.54-36.54,2.7-4.34,6.76-6.64,11.69-6.64s8.99,2.31,11.69,6.64c2,3.21,2.09,4.48,2.54,36.54,.52,36.33,.4,35.59,6.35,39.52,3.61,2.38,12.15,2.38,15.77,0,5.95-3.93,5.84-3.19,6.35-39.52,.44-31.07,.6-33.42,2.37-36.37,5.46-9.06,17.96-9.15,23.56-.17,2.04,3.27,2.08,4.07,2.54,50.78,.52,52.1,.24,49.73,6.35,53.76,3.61,2.38,12.15,2.38,15.77,0,5.95-3.93,5.84-3.19,6.35-39.52,.46-32.06,.55-33.34,2.54-36.54,5.6-8.98,18.1-8.89,23.56,.17,1.85,3.07,1.9,4.8,1.86,64.84-.05,76.65,0,76.27-14.45,109.15-4.19,9.52-8.26,20.61-9.94,27.05-2.58,9.88-2.89,12.73-3.33,30.14l-.48,19.22H194.16l-.5-14c-.59-16.41-2.9-25.79-9.75-39.63-5.36-10.83-11.89-19.57-22.7-30.37-11.66-11.65-16.43-17.26-18.96-22.3-4.74-9.45-4.81-10.46-4.81-63.12,0-47.67,.06-49.46,1.9-52.51,5.49-9.1,18.24-9.1,23.73,0,1.77,2.95,1.93,5.3,2.37,36.37,.52,36.33,.4,35.59,6.35,39.52,3.61,2.38,12.15,2.38,15.77,0,6.33-4.17,5.83,4.56,6.35-110.7l.47-104.41,2.22-3.57c1.22-1.97,3.36-4.19,4.75-4.95,3.66-1.99,10.49-1.79,14.1,.41Zm227.47-.06c4.14,2.73,6.29,6.65,6.29,11.49,0,7.64-5.64,13.28-13.28,13.28s-13.28-5.64-13.28-13.28,5.64-13.28,13.28-13.28c2.59,0,5.34,.7,6.98,1.79ZM72.75,152.95c8.49,5.6,8.49,17.38,0,22.97-5.74,3.79-14.4,1.68-18.47-4.5-3.79-5.74-1.68-14.4,4.5-18.47,3.57-2.35,10.4-2.35,13.97,0Z"/>
</svg>