<?xml version="1.0" encoding="UTF-8"?>
<svg id="_Слой_1" data-name="Слой 1" xmlns="http://www.w3.org/2000/svg" viewBox="0 0 501.73 501.73">
  <defs>
    <style>
      .cls-1 {
        fill: #c32865;
        fill-rule: evenodd;
        stroke: #c32865;
        stroke-miterlimit: 10;
        stroke-width: 7px;
      }
    </style>
  </defs>
  <path class="cls-1" d="M299.4,45.67c-36.05,5.13-67.62,21.2-91.48,46.55-12.99,13.81-24,30.91-30.26,47l-2.92,7.5h-63.13l-3.03,3.03c-3.29,3.29-3.89,6.59-1.97,10.81,2.13,4.68,3.54,4.88,34.64,4.88,25.14,0,28.6,.16,28.15,1.34-.28,.74-1.01,5.51-1.61,10.6l-1.1,9.26-5.13,.37c-5.81,.42-8.38,2.16-9.52,6.43-.98,3.66,.21,7.65,3.02,10.1,1.75,1.53,3.39,2.01,6.95,2.01h4.66l1.11,9.35c.61,5.15,1.34,9.96,1.63,10.7,.45,1.18-3.06,1.34-28.64,1.34h-29.15l-3.03,3.03c-3.38,3.38-3.93,6.9-1.76,11.1,2.29,4.43,3.59,4.59,37.03,4.59h31.08l1.08,3.34c1.66,5.15,8.39,19.27,12.03,25.26,1.8,2.96,3.12,5.5,2.94,5.66-.18,.16-27.79,26-61.37,57.43-33.58,31.43-62.57,59.24-64.43,61.81-4.74,6.55-6.27,12.47-5.8,22.44,.47,10.01,3.31,16.61,10.01,23.32,6.71,6.71,13.31,9.54,23.32,10.01,9.97,.47,15.88-1.06,22.45-5.8,3.21-2.32,103.83-108.48,119.23-125.8,.16-.18,2.61,1.08,5.46,2.8,16.62,10.01,34.99,16.62,55.09,19.85,12.94,2.07,35.44,1.88,48.73-.42,61.57-10.66,109.68-57.25,122.97-119.1,1.86-8.65,2.1-12.1,2.1-30.26,0-22.35-.64-27.17-5.93-44.53-14.18-46.55-50.13-83.49-96.27-98.93-17.1-5.72-24.83-6.94-45.75-7.21-10.29-.13-19.92-.07-21.39,.14Zm44.56,20.39c17.52,3.59,36.83,12.01,51.48,22.45,9.31,6.64,23.71,21.04,30.35,30.35,10.48,14.7,18.71,33.59,22.62,51.92,2.3,10.78,2.3,40.02,0,50.8-5.66,26.56-17.96,49.39-36.71,68.17-11.02,11.03-21.73,18.68-35.65,25.45-22.47,10.93-45.05,15.33-68.18,13.3-32.44-2.85-60.52-15.89-83.35-38.72-21.49-21.49-35.14-49.48-38.37-78.67l-.62-5.57h10.84c7.91,0,10.92,.3,11.15,1.11,.17,.61,.79,4.32,1.38,8.24,1.25,8.39,5.91,22.94,9.89,30.9,10.62,21.25,28.55,39.19,49.35,49.42,9.53,4.68,12.71,4.93,16.76,1.31,2.47-2.21,2.91-3.21,2.91-6.61,0-4.57-2.3-7.72-7-9.58-5.32-2.11-14.83-8.02-21.39-13.3-7.68-6.18-14.99-14.81-20.99-24.79-4.72-7.85-10.4-23.71-11.33-31.63l-.6-5.07h9.08c12.66,0,16.12-2.01,16.12-9.36s-3.46-9.36-16.12-9.36h-9.08l.57-4.87c1.32-11.21,8.39-28.44,16.08-39.15,4.62-6.44,15.2-17.07,21.47-21.57,2.45-1.76,7.87-4.91,12.03-7,27.19-13.66,56.19-13.62,83.07,.13,9.76,4.99,17.26,10.66,25.22,19.08,10.94,11.56,18.25,24.76,22.42,40.46,2.06,7.75,2.36,10.65,2.36,22.28s-.31,14.53-2.36,22.28c-6.98,26.37-24.4,48.13-47.82,59.74-8.24,4.08-10.51,6.09-11.23,9.94-1.11,5.94,3.12,10.98,9.21,10.98,6.94,0,27.36-12.81,39.04-24.49,15.37-15.37,25.59-34.43,30.36-56.62,2.21-10.27,2.24-32.08,.07-43.03-4.32-21.75-14.8-41.32-30.59-57.11-15.78-15.78-35.34-26.26-57.11-30.59-10.84-2.16-32.68-2.11-43.03,.09-39.81,8.47-70.59,35.76-83.36,73.93-1.74,5.21-3.67,12.98-4.29,17.27l-1.12,7.8-10.99,.25-10.99,.25,.63-5.6c2.89-25.71,14.31-51.5,31.89-72.01,18.28-21.32,45.88-37.44,74.16-43.28,14.53-3.01,36.91-2.98,51.76,.07ZM85.74,108.01c-3.08,1.67-4.26,3.88-4.26,7.97s1.2,6.34,4.44,8.01c2.07,1.07,6.34,1.35,21.01,1.35h18.4l3.14-3.14c2.86-2.86,3.1-3.48,2.64-6.91-.36-2.69-1.29-4.46-3.25-6.21l-2.74-2.45-18.48,.04c-14.57,.03-18.99,.31-20.91,1.35Zm179.15,40.11c-3.14,1.7-4.26,3.88-4.26,8.31,0,2.49,.65,4.33,2.15,6.07l2.15,2.5,19.17,.27,19.17,.27,2.97-2.65c2.56-2.29,2.97-3.22,2.97-6.81s-.41-4.53-2.91-6.76l-2.91-2.6-18.03,.04c-14.17,.03-18.55,.32-20.46,1.35ZM17.63,187.72c-5.02,2.03-6.5,10.39-2.62,14.89l2.15,2.5H108.37l2.15-2.5c2.32-2.7,2.92-8.21,1.23-11.36-2.32-4.34-3.18-4.41-49.17-4.35-23.68,.03-43.91,.4-44.96,.83Zm68.11,80.72c-3.08,1.67-4.26,3.88-4.26,7.97s1.2,6.34,4.44,8.01c2.07,1.07,6.34,1.35,21.01,1.35h18.4l3.14-3.14c2.86-2.86,3.1-3.48,2.64-6.91-.36-2.69-1.29-4.46-3.25-6.21l-2.74-2.45-18.48,.04c-14.57,.03-18.99,.31-20.91,1.35Zm227.57,21.25c-6.06,3.36-5.86,13.59,.32,16.41,4.22,1.92,7.52,1.32,10.81-1.97,2.35-2.35,3.03-3.77,3.03-6.33s-.68-3.97-3.03-6.33c-3.33-3.33-7.22-3.95-11.13-1.79Zm-98.15,17.82l4.32,4.04-7.44,7.83-7.44,7.83-8.75-8.75-8.75-8.75,7.83-7.44,7.83-7.44,4.04,4.32c2.22,2.38,5.99,6.14,8.36,8.36Zm-32.57,24.55c8.02,8.06,8.71,9,7.56,10.44-5.91,7.39-84.75,90.36-87.39,91.97-7.38,4.5-17.95,1.49-22.59-6.43-3-5.11-3.1-12.11-.24-16.71,1.87-3.01,91.92-88.13,93.23-88.13,.33,0,4.57,3.99,9.43,8.86Z"/>
</svg>